<?xml version="1.0" encoding="UTF-8"?>
<!DOCTYPE svg PUBLIC "-//W3C//DTD SVG 1.1//EN" "http://www.w3.org/Graphics/SVG/1.1/DTD/svg11.dtd">
<!-- Creator: CorelDRAW 2019 (64-Bit) -->
<svg xmlns="http://www.w3.org/2000/svg" xml:space="preserve" width="25in" height="25in" version="1.1" style="shape-rendering:geometricPrecision; text-rendering:geometricPrecision; image-rendering:optimizeQuality; fill-rule:evenodd; clip-rule:evenodd"
viewBox="0 0 25000 25000"
 xmlns:xlink="http://www.w3.org/1999/xlink"
 xmlns:xodm="http://www.corel.com/coreldraw/odm/2003">
 <defs>
  <style type="text/css">
   <![CDATA[
    .str0 {stroke:#373435;stroke-width:111.11;stroke-miterlimit:4}
    .fil0 {fill:none;fill-rule:nonzero}
   ]]>
  </style>
 </defs>
 <g id="Layer_x0020_1">
  <metadata id="CorelCorpID_0Corel-Layer"/>
  <polyline class="fil0 str0" points="11508.2,17550.56 11609.65,17557.21 12282.94,17551.29 12375.01,17536.76 "/>
  <path class="fil0 str0" d="M12375.01 17536.76c360.49,-56.88 626.42,-238.46 926,-632.28"/>
  <polyline class="fil0 str0" points="13301,16904.48 13381.69,16798.42 13670.07,16392.39 13759.4,16281.82 "/>
  <path class="fil0 str0" d="M13759.4 16281.82c216.61,-268.11 330.54,-488.82 387.92,-751.57"/>
  <polyline class="fil0 str0" points="14147.32,15530.25 14164.44,15451.85 14164.08,15253.56 "/>
  <path class="fil0 str0" d="M14164.08 15253.56c-0.4,-216.85 -5.48,-250.51 -82.14,-544.16 -36.94,-141.49 -77.69,-374.22 -105.78,-604.11"/>
  <polyline class="fil0 str0" points="13976.17,14105.28 13957.01,13948.49 13901.59,13474.27 13901.74,13365.52 "/>
  <path class="fil0 str0" d="M13901.74 13365.52c0.53,-359.79 152.1,-508.04 599.34,-586.23"/>
  <polyline class="fil0 str0" points="14501.09,12779.29 14616.37,12759.13 15095.97,12759.17 15192.81,12780.21 "/>
  <path class="fil0 str0" d="M15192.81 12780.21c294.62,64.04 508.96,178.31 696,371.07 180.59,186.11 289.89,397.09 373.47,720.88 74.85,289.99 104.61,509.63 104.7,772.67 0.15,445.55 -109.29,778.71 -333.78,1016.14 -127.61,134.96 -256.88,218.71 -439.19,284.52 -266.13,96.07 -419.2,235.25 -488.17,443.86 -35.58,107.63 -40.66,192.66 -15.02,251.66 68.03,156.56 203.21,263.42 394.49,311.85"/>
  <polyline class="fil0 str0" points="15485.32,16952.86 15566.35,16973.37 15769.26,16972.55 "/>
  <path class="fil0 str0" d="M15769.26 16972.55c480.89,-1.96 1328.87,-77.78 2264.26,-202.43"/>
  <polyline class="fil0 str0" points="18033.52,16770.12 18342.49,16728.94 18412.22,16711.54 "/>
  <path class="fil0 str0" d="M18412.22 16711.54c200.63,-50.09 338.41,-162.12 423.69,-344.49 56.69,-121.23 83,-247.08 96.85,-463.26 16.06,-250.51 88.19,-529.34 239.79,-926.92"/>
  <polyline class="fil0 str0" points="19172.54,14976.86 19234.09,14815.46 19276.11,14727.89 "/>
  <path class="fil0 str0" d="M19276.11 14727.89c32.83,-68.41 55.36,-100.8 102.98,-148.06 131.22,-130.21 279.82,-149.76 466.07,-61.31"/>
  <polyline class="fil0 str0" points="19845.16,14518.52 19910.48,14549.53 20297.78,14795.26 21312.32,15425.7 21828.81,15754.24 21962.55,15844.26 "/>
  <path class="fil0 str0" d="M21962.55 15844.26c371.63,250.16 537.12,515.06 585.5,937.19"/>
  <polyline class="fil0 str0" points="22548.06,16781.45 22562.69,16909.09 22577.08,16969.05 "/>
  <path class="fil0 str0" d="M22577.08 16969.05c20.36,84.81 77.72,198.93 129.42,257.46 55.19,62.49 135.89,115.21 214.59,140.19 77.76,24.68 210.59,26.66 295.8,4.41 238.37,-62.23 521.56,-313.67 655.41,-581.92 48.74,-97.69 74.19,-187.35 180.48,-636 167,-704.87 240.23,-1286.85 191.87,-1524.9 -31.79,-156.48 -132.69,-362.27 -248.42,-506.65 -61.88,-77.2 -91.47,-103.41 -296.22,-262.38 -105.92,-82.23 -257.21,-229.99 -337.76,-329.85 -234.4,-290.63 -367.02,-623.61 -417.69,-1048.68"/>
  <polyline class="fil0 str0" points="22944.57,12480.74 22930.43,12362.12 22912.75,11627.04 22898.75,11413.53 "/>
  <path class="fil0 str0" d="M22898.75 11413.53c-48.06,-733.17 -148.74,-1406.3 -309.9,-2071.96"/>
  <polyline class="fil0 str0" points="22588.85,9341.57 22543.08,9152.49 22510.3,9032.59 "/>
  <path class="fil0 str0" d="M22510.3 9032.59c-190.85,-698.04 -429.81,-1334.9 -752.69,-2006.02 -253.8,-527.54 -541.3,-979.66 -888.54,-1397.3"/>
  <polyline class="fil0 str0" points="20869.07,5629.28 20769.39,5509.38 20343.9,5084.01 20233.22,4992.2 "/>
  <path class="fil0 str0" d="M20233.22 4992.2c-305.82,-253.71 -603.65,-449.67 -936.14,-615.96 -563.86,-281.99 -1143.1,-437.87 -1806.77,-486.2"/>
  <polyline class="fil0 str0" points="17490.31,3890.03 17339.08,3879.02 16737.68,3889.58 16599.33,3904.33 "/>
  <path class="fil0 str0" d="M16599.33 3904.33c-321.03,34.25 -658.1,95.9 -959.2,175.44 -839.89,221.87 -1209.19,291.44 -1742.41,328.21"/>
  <polyline class="fil0 str0" points="13897.72,4407.98 13741.68,4418.74 13159.13,4408.71 13066.9,4398.54 "/>
  <path class="fil0 str0" d="M13066.9 4398.54c-261.36,-28.82 -505.14,-72.3 -730.3,-130.23"/>
  <polyline class="fil0 str0" points="12336.6,4268.31 12227.6,4240.26 12051.54,4181.77 "/>
  <path class="fil0 str0" d="M12051.54 4181.77c-96.83,-32.17 -258.69,-92.74 -359.7,-134.59"/>
  <polyline class="fil0 str0" points="11691.85,4047.18 11508.2,3971.09 11379.07,3926.99 11083.94,3846.27 10512.11,3706.91 10327.65,3670.04 "/>
  <path class="fil0 str0" d="M10327.65 3670.04c-216.9,-43.35 -387.13,-68.79 -589.45,-88.11"/>
  <polyline class="fil0 str0" points="9738.19,3581.93 9591.45,3567.93 9132.73,3567.93 8996.96,3582.07 "/>
  <path class="fil0 str0" d="M8996.96 3582.07c-499.93,52.08 -936.21,221.46 -1320.94,512.83 -203.87,154.4 -373.57,323.66 -567.93,566.43"/>
  <polyline class="fil0 str0" points="7108.08,4661.33 7004.33,4790.93 6945.89,4842.02 "/>
  <path class="fil0 str0" d="M6945.89 4842.02c-32.15,28.09 -83.35,69.92 -113.78,92.95"/>
  <polyline class="fil0 str0" points="6832.1,4934.97 6776.76,4976.84 6417.06,5216.78 6364.56,5254.84 "/>
  <path class="fil0 str0" d="M6364.56 5254.84c-52.51,38.06 -52.51,38.06 -86.72,-23.13 -115.56,-206.63 -283.81,-368.03 -453.22,-434.75 -54.96,-21.64 -75.56,-24.61 -173.06,-25 -133.01,-0.52 -197.81,18.05 -301.99,86.53 -106.28,69.86 -192.76,169.98 -279.14,323.13"/>
  <polyline class="fil0 str0" points="5070.41,5181.63 5026.39,5259.69 4880.12,5582.07 4796.56,5753.85 4778.81,5764.82 4258.87,5511.13 4134.35,5458.44 "/>
  <path class="fil0 str0" d="M4134.35 5458.44c-142.81,-60.43 -327.68,-122.26 -415.04,-138.83 -154.71,-29.34 -362.35,-5.88 -473.37,53.49 -65.48,35.02 -145.54,116.68 -174.3,177.78 -69.72,148.14 -56.57,331.08 41.88,582.87 60.59,154.96 73.77,218.39 68.94,331.8 -4.57,107.34 -24.86,168.69 -86.98,262.98"/>
  <polyline class="fil0 str0" points="3095.48,6728.54 3060.16,6782.17 2866.04,6975.85 2551.08,7274.05 2518.4,7337.08 "/>
  <path class="fil0 str0" d="M2518.4 7337.08c-33.48,64.55 -64.3,150.72 -80.28,224.44"/>
  <polyline class="fil0 str0" points="2438.12,7561.52 2429.13,7603.02 2414.52,7721.82 "/>
  <path class="fil0 str0" d="M2414.52 7721.82c-106.63,867.54 -538.59,1535.51 -1358.75,2101.12"/>
  <polyline class="fil0 str0" points="1055.77,9822.94 931.3,9908.79 894.48,9936.45 "/>
  <path class="fil0 str0" d="M894.48 9936.45c-40.52,30.45 -96.91,117.57 -127.85,197.5 -13.2,34.1 -21.39,80.21 -24.24,136.38 -4.04,79.88 -2.64,88.4 23.88,145.07 76.88,164.29 207.09,287.22 402.05,379.57 105.28,49.87 221.65,81.48 388.18,105.44"/>
  <polyline class="fil0 str0" points="1556.5,10900.43 1685.63,10919.01 1742.37,10937.76 "/>
  <path class="fil0 str0" d="M1742.37 10937.76c80.34,26.55 128.07,61.27 215,156.38"/>
  <polyline class="fil0 str0" points="1957.38,11094.14 2033.36,11177.27 2071.62,11199.48 "/>
  <path class="fil0 str0" d="M2071.62 11199.48c21.05,12.21 63.65,30.67 94.67,41.02"/>
  <polyline class="fil0 str0" points="2166.29,11240.5 2222.69,11259.32 2359.97,11277.63 "/>
  <path class="fil0 str0" d="M2359.97 11277.63c273.33,36.44 661.41,70.82 1045.76,92.65"/>
  <polyline class="fil0 str0" points="3405.73,11370.27 3567.13,11379.44 3913,11388.95 "/>
  <path class="fil0 str0" d="M3913 11388.95c190.22,5.23 472.4,13.63 627.05,18.66"/>
  <polyline class="fil0 str0" points="4540.05,11407.61 4821.24,11416.76 5522.43,11416.68 5817.56,11389.41 6287.94,11334.83 6354.26,11329.14 5812.72,12684.93 5414.46,13690.24 5109.72,14483.43 5069.66,14573.85 "/>
  <path class="fil0 str0" d="M5069.66 14573.85c-177.84,401.43 -468.47,742.37 -838.46,983.62 -128.85,84.02 -381.2,208.69 -530.33,262.01"/>
  <polyline class="fil0 str0" points="3700.87,15819.48 3585.58,15860.7 3176.56,15981.57 3090.54,16015.4 "/>
  <path class="fil0 str0" d="M3090.54 16015.4c-228.8,89.96 -347.59,175.76 -470.82,340.06 -126.89,169.18 -180.84,339.98 -141.85,449.13 19.34,54.15 94.46,153.25 184.73,243.67 127.68,127.91 274.89,219.98 397.91,248.88"/>
  <polyline class="fil0 str0" points="3060.51,17297.14 3124.43,17312.15 3511.8,17327.22 3777.41,17338.74 "/>
  <path class="fil0 str0" d="M3777.41 17338.74c207.1,8.99 316.82,9.15 498.05,0.76"/>
  <polyline class="fil0 str0" points="4275.45,17339.5 4507.89,17328.72 4632.4,17314.88 "/>
  <path class="fil0 str0" d="M4632.4 17314.88c700.88,-77.93 1256.68,-299.84 1715.49,-684.92"/>
  <polyline class="fil0 str0" points="6347.89,16629.96 6435.51,16556.42 6702.98,16281.2 6777.92,16184.72 "/>
  <path class="fil0 str0" d="M6777.92 16184.72c107.52,-138.41 217.52,-303.11 326.22,-488.46 185.2,-315.77 370.27,-602.74 597.76,-926.92"/>
  <polyline class="fil0 str0" points="7701.91,14769.34 7799,14631 8116.53,14197.51 8757.92,13348.99 9092.38,12897.06 9119.74,12858.06 "/>
  <path class="fil0 str0" d="M9119.74 12858.06c15.05,-21.45 30.1,-39.09 33.46,-39.2"/>
  <polyline class="fil0 str0" points="9153.19,12818.86 9159.3,12818.67 9611.53,13167.23 9771.3,13296.13 "/>
  <path class="fil0 str0" d="M9771.3 13296.13c495.78,399.99 802.69,716.66 1039.14,1072.14 190.81,286.87 310.2,552.43 391.77,871.45"/>
  <polyline class="fil0 str0" points="11202.2,15239.72 11235.22,15368.84 11309.56,15793.11 11320.08,15883.94 "/>
  <path class="fil0 str0" d="M11320.08 15883.94c29.72,256.41 -22.52,363.81 -224.81,462.22"/>
  <polyline class="fil0 str0" points="11095.28,16346.17 11006.6,16389.31 10530.55,16545.63 10481.11,16575.19 "/>
  <path class="fil0 str0" d="M10481.11 16575.19c-155.72,93.07 -286.61,325.44 -287.06,509.65 -0.2,81.24 31.06,138.47 128.21,234.77 91.93,91.12 163.46,133.05 250.18,146.64"/>
  <polyline class="fil0 str0" points="10572.44,17466.24 10632.01,17475.58 11185.39,17530.6 11508.2,17550.56 "/>
 </g>
</svg>
