<?xml version="1.0" encoding="UTF-8"?>
<!DOCTYPE svg PUBLIC "-//W3C//DTD SVG 1.1//EN" "http://www.w3.org/Graphics/SVG/1.1/DTD/svg11.dtd">
<!-- Creator: CorelDRAW 2019 (64-Bit) -->
<svg xmlns="http://www.w3.org/2000/svg" xml:space="preserve" width="25in" height="25in" version="1.1" style="shape-rendering:geometricPrecision; text-rendering:geometricPrecision; image-rendering:optimizeQuality; fill-rule:evenodd; clip-rule:evenodd"
viewBox="0 0 25000 25000"
 xmlns:xlink="http://www.w3.org/1999/xlink"
 xmlns:xodm="http://www.corel.com/coreldraw/odm/2003">
 <defs>
  <style type="text/css">
   <![CDATA[
    .str0 {stroke:#373435;stroke-width:111.11;stroke-miterlimit:4}
    .fil0 {fill:none;fill-rule:nonzero}
   ]]>
  </style>
 </defs>
 <g id="Layer_x0020_1">
  <metadata id="CorelCorpID_0Corel-Layer"/>
  <g id="_1948998854656">
   <polyline class="fil0 str0" points="19036.04,20291.32 19915.44,20326.81 21674.26,20320.95 21782.41,20265.98 "/>
   <path class="fil0 str0" d="M21782.41 20265.98c59.48,-30.23 129.6,-85.88 155.81,-123.67"/>
   <polyline class="fil0 str0" points="21938.22,20142.32 21985.87,20073.61 22016.83,18974.36 "/>
   <path class="fil0 str0" d="M22016.83 18974.36c22.98,-815.88 22.96,-1403.9 -0.07,-2280.96"/>
   <polyline class="fil0 str0" points="22016.76,16693.4 21985.73,15511.7 22020.77,14027.7 22075.04,13340.66 22316.59,11719.25 22382.53,11142.14 22349.28,10070.36 22307.74,9850.51 "/>
   <path class="fil0 str0" d="M22307.74 9850.51c-63.39,-335.44 -76.26,-313.15 171.09,-296.19 271.09,18.58 582.43,-55.7 912.63,-217.75 195.08,-95.73 279.81,-160.78 509.63,-391.29"/>
   <polyline class="fil0 str0" points="23901.09,8945.28 24176.73,8668.81 24213.4,8579.95 "/>
   <path class="fil0 str0" d="M24213.4 8579.95c55.37,-134.17 19.31,-272.94 -87.91,-338.31 -48.3,-29.45 -123.29,-53.59 -166.63,-53.65 -80.84,-0.1 -100.12,16.72 -416.66,363.53 -150.72,165.15 -390.47,331.39 -568.49,394.2 -99.76,35.19 -132.77,34.94 -277.36,-2.1 -464.56,-119.02 -709.17,-324.88 -1159.23,-975.58 -225.91,-326.63 -630.21,-722.32 -962.12,-941.65 -722.56,-477.46 -1671.21,-810.5 -2569.52,-902.1"/>
   <polyline class="fil0 str0" points="18005.48,6124.29 17689.44,6092.06 15600.85,6095.67 15426.11,6076.87 "/>
   <path class="fil0 str0" d="M15426.11 6076.87c-174.74,-18.8 -174.74,-18.8 -240.31,-193.51 -89.24,-237.78 -284.33,-523.3 -472.81,-691.99 -189.35,-169.46 -572.35,-363.69 -870.94,-441.66 -314.52,-82.13 -957.48,-102.24 -1286.46,-40.24 -432.21,81.46 -863.17,268.21 -1575.52,682.74"/>
   <path class="fil0 str0" d="M10980.05 5392.2c-96.57,48.57 -735.02,358.67 -918.14,385.5 -846.28,123.96 -1620.43,412.18 -2301.3,856.78 -882.04,575.96 -1714.09,1507.72 -2108.32,2360.98 -315.38,682.59 -463.7,1590.55 -395.11,2418.72 60.84,734.66 66.43,1274.53 15.76,1524.54 -86.47,426.75 -293.31,716.73 -628.9,881.7 -354.04,174.03 -685.11,170.57 -1051.44,-11 -589.47,-292.17 -959.42,-966.93 -1056.8,-1927.54"/>
   <polyline class="fil0 str0" points="2535.8,11884.14 2507.94,11609.33 2471,10554.31 2394.25,10524.86 2092.58,10491.31 "/>
   <path class="fil0 str0" d="M2092.58 10491.31c-454.38,-50.52 -1083.39,38.46 -1277.15,180.68"/>
   <polyline class="fil0 str0" points="815.43,10672 760.86,10712.05 763.24,11105.72 "/>
   <path class="fil0 str0" d="M763.24 11105.72c5.09,840.97 238.96,2216.45 534.22,3141.82 388.22,1216.73 1447.65,2273.61 2683.38,2676.91 178.82,58.36 448.8,129.18 599.94,157.38"/>
   <polyline class="fil0 str0" points="4580.78,17081.84 4855.6,17133.1 6009.82,17133.1 6243.41,17083.84 "/>
   <path class="fil0 str0" d="M6243.41 17083.84c288.89,-60.92 629.06,-170.06 810.7,-260.11"/>
   <polyline class="fil0 str0" points="7054.11,16823.73 7191.52,16755.61 7588.2,16504.65 "/>
   <path class="fil0 str0" d="M7588.2 16504.65c295.55,-186.97 471.52,-322.78 690.19,-532.64"/>
   <polyline class="fil0 str0" points="8278.39,15972.01 8571.9,15690.33 8641.83,15690.33 8593.08,17902.58 8596.46,19249.17 8641.44,19448.67 "/>
   <path class="fil0 str0" d="M8641.44 19448.67c94.2,417.82 276.68,686.15 506.58,744.91"/>
   <polyline class="fil0 str0" points="9148.02,20193.58 9252.63,20220.32 11780.93,20238.5 11866.85,20177.21 "/>
   <path class="fil0 str0" d="M11866.85 20177.21c105.93,-75.56 167.07,-200.42 215.94,-440.96"/>
   <polyline class="fil0 str0" points="12082.8,19736.26 12120.34,19551.47 12184.03,18039.99 12221.91,17852.34 "/>
   <path class="fil0 str0" d="M12221.91 17852.34c126.56,-626.92 546.59,-970.58 1386.54,-1134.46"/>
   <polyline class="fil0 str0" points="13608.44,16717.87 13842.04,16672.3 17050.26,16647.9 17287,16679.4 "/>
   <path class="fil0 str0" d="M17287 16679.4c454.11,60.43 769.22,212.56 1067.69,515.46 203.3,206.32 347.07,479.19 409.07,776.42"/>
   <polyline class="fil0 str0" points="18763.76,17971.28 18806.76,18177.39 18825.21,18602.07 "/>
   <path class="fil0 str0" d="M18825.21 18602.07c10.15,233.57 8.53,586.02 -3.61,783.22"/>
   <polyline class="fil0 str0" points="18821.61,19385.3 18799.54,19743.84 18814.39,19902.55 "/>
   <path class="fil0 str0" d="M18814.39 19902.55c17.16,183.5 72.54,306.18 160.1,354.68"/>
   <line class="fil0 str0" x1="18974.49" y1="20257.23" x2="19036.04" y2= "20291.32" />
  </g>
 </g>
</svg>
